<?xml version="1.0" standalone="no"?>
<!DOCTYPE svg PUBLIC "-//W3C//DTD SVG 20010904//EN"
 "http://www.w3.org/TR/2001/REC-SVG-20010904/DTD/svg10.dtd">
<svg version="1.0" xmlns="http://www.w3.org/2000/svg"
 width="840.000000pt" height="859.000000pt" viewBox="0 0 840.000000 859.000000"
 preserveAspectRatio="xMidYMid meet">

<g transform="translate(0.000000,859.000000) scale(0.100000,-0.100000)"
fill="#000000" stroke="none">
<path d="M3970 8464 c-19 -2 -93 -9 -165 -15 -490 -41 -1012 -192 -1480 -428
-299 -151 -569 -330 -830 -549 -116 -98 -369 -351 -467 -467 -493 -588 -813
-1270 -937 -2006 -43 -257 -56 -414 -56 -704 0 -290 13 -447 56 -704 70 -417
195 -793 388 -1176 210 -415 451 -747 785 -1080 464 -462 1021 -803 1652
-1011 264 -87 595 -156 889 -185 168 -17 632 -17 800 0 525 52 1014 195 1480
430 299 151 569 330 830 549 116 98 369 351 467 467 559 665 893 1453 979
2310 17 168 17 632 0 800 -52 525 -195 1014 -430 1480 -151 299 -329 568 -549
830 -95 113 -359 377 -472 471 -652 547 -1420 877 -2255 970 -131 14 -607 27
-685 18z m445 -1014 c938 -70 1757 -515 2318 -1258 780 -1035 845 -2450 162
-3557 -484 -785 -1298 -1325 -2210 -1465 -491 -75 -988 -34 -1465 122 -792
258 -1455 827 -1834 1573 -229 449 -340 918 -340 1430 0 421 71 792 226 1180
306 767 924 1400 1683 1723 351 149 681 227 1085 255 105 8 244 6 375 -3z"/>
<path d="M4000 6983 c-1077 -84 -2001 -804 -2352 -1833 -165 -484 -181 -1062
-43 -1565 122 -446 367 -867 695 -1195 267 -267 624 -496 974 -625 519 -191
1106 -216 1641 -69 180 49 297 94 480 184 536 263 963 690 1225 1225 91 185
136 302 184 480 126 459 126 962 1 1420 -48 174 -95 296 -185 480 -262 535
-688 962 -1225 1225 -315 155 -596 234 -954 270 -96 9 -337 11 -441 3z m540
-393 c395 -50 729 -182 917 -363 290 -278 184 -609 -268 -834 -106 -52 -255
-103 -406 -137 -344 -79 -812 -79 -1156 0 -439 100 -736 294 -816 532 -131
386 415 757 1199 816 92 6 439 -3 530 -14z"/>
</g>
</svg>
